<?xml version="1.0" standalone="no"?>
<!DOCTYPE svg PUBLIC "-//W3C//DTD SVG 20010904//EN"
 "http://www.w3.org/TR/2001/REC-SVG-20010904/DTD/svg10.dtd">
<svg version="1.0" xmlns="http://www.w3.org/2000/svg"
 width="2348.000000pt" height="2348.000000pt" viewBox="0 0 2348.000000 2348.000000"
 preserveAspectRatio="xMidYMid meet">
<metadata>
Created by potrace 1.11, written by Peter Selinger 2001-2013
</metadata>
<g transform="translate(0.000000,2348.000000) scale(0.100000,-0.100000)"
fill="#000000" stroke="none">
<path d="M3542 14994 c-8 -15 -2 -28 32 -69 88 -105 146 -249 170 -425 2 -14
7 -50 12 -80 20 -145 4 -508 -29 -665 -3 -11 -8 -42 -12 -70 -14 -98 -99 -454
-124 -520 -4 -11 -32 -92 -60 -180 -47 -141 -146 -404 -186 -490 -7 -16 -71
-163 -140 -325 -70 -162 -135 -313 -145 -335 -10 -22 -44 -98 -75 -170 -31
-71 -65 -148 -75 -170 -10 -22 -79 -177 -153 -345 -74 -168 -151 -341 -172
-385 -20 -44 -43 -93 -50 -110 -13 -30 -35 -79 -106 -233 -34 -72 -42 -83 -61
-80 -19 2 -23 10 -24 38 -3 73 -14 226 -18 247 -3 12 -7 50 -10 85 -4 35 -8
74 -11 88 -2 14 -9 59 -14 100 -6 41 -13 86 -15 100 -2 14 -10 59 -16 100 -7
41 -14 84 -16 95 -2 11 -7 36 -10 55 -25 151 -94 500 -133 670 -10 47 -33 148
-50 225 -80 356 -163 649 -291 1035 -66 200 -183 516 -212 575 -43 86 -125
132 -215 122 -128 -14 -133 -104 -17 -282 54 -84 129 -231 178 -350 16 -38 37
-89 47 -112 88 -200 261 -732 338 -1038 40 -160 111 -516 146 -730 19 -116 23
-142 29 -170 2 -11 7 -42 10 -70 4 -27 11 -79 17 -114 5 -35 11 -82 13 -105 2
-23 7 -57 10 -76 3 -19 8 -56 11 -82 3 -27 7 -68 10 -93 10 -89 14 -131 20
-200 4 -38 8 -90 11 -115 2 -25 6 -90 9 -145 14 -247 15 -251 66 -309 40 -46
97 -76 143 -76 48 0 80 35 101 107 52 179 185 558 235 669 11 24 20 45 20 48
0 7 98 236 158 371 69 155 210 449 459 955 304 617 390 812 496 1131 63 189
85 268 148 539 6 25 13 61 15 80 2 19 8 58 14 85 30 160 43 434 27 575 -29
258 -128 447 -292 560 -103 71 -194 98 -213 64z"/>
<path d="M14567 14658 c-23 -12 -25 -40 -32 -368 -4 -162 -8 -317 -9 -345 -2
-27 -6 -95 -10 -150 -3 -55 -8 -116 -11 -135 -2 -19 -7 -78 -10 -130 -4 -52
-8 -111 -10 -130 -2 -19 -6 -73 -10 -120 -4 -47 -8 -101 -10 -120 -2 -19 -7
-71 -11 -115 -3 -44 -8 -93 -10 -110 -2 -16 -6 -64 -9 -105 -4 -41 -8 -81 -10
-90 -2 -9 -6 -56 -10 -106 -4 -49 -8 -100 -10 -114 -2 -14 -7 -56 -10 -95 -3
-38 -8 -90 -10 -115 -3 -25 -7 -81 -10 -125 -4 -44 -8 -93 -10 -110 -2 -16 -6
-84 -10 -150 -4 -66 -8 -138 -10 -160 -9 -94 -19 -405 -19 -595 1 -251 10
-382 39 -540 7 -36 28 -109 46 -158 76 -207 204 -309 399 -317 176 -7 332 74
530 274 101 102 128 134 229 268 l76 102 6 -122 c9 -160 21 -217 66 -307 50
-97 98 -134 181 -136 182 -4 394 159 688 528 79 101 368 566 511 825 39 70 63
87 63 45 0 -15 -9 -90 -19 -167 -20 -144 -27 -202 -36 -315 -3 -36 -8 -79 -10
-96 -11 -76 -19 -277 -19 -474 0 -181 2 -224 18 -271 32 -100 91 -144 183
-137 76 7 113 43 113 110 0 41 -4 52 -31 75 -57 51 -64 93 -64 403 0 219 5
320 21 470 7 62 44 338 50 375 8 43 32 175 39 210 18 90 58 244 91 350 55 179
47 270 -32 364 -70 83 -147 65 -168 -39 -15 -73 -58 -189 -72 -194 -10 -4 -34
14 -69 49 -30 31 -74 64 -98 75 -99 44 -274 46 -407 6 -92 -28 -223 -96 -290
-151 -75 -61 -190 -181 -250 -260 -69 -92 -150 -218 -150 -234 0 -5 -3 -11 -8
-13 -30 -13 -214 -472 -236 -590 -4 -21 -23 -66 -43 -100 -19 -35 -47 -83 -61
-108 -113 -200 -284 -413 -422 -522 -102 -82 -227 -125 -331 -115 -85 8 -145
54 -193 152 -27 55 -61 173 -72 250 -3 28 -8 61 -10 75 -24 176 -23 730 1
1050 2 30 7 102 10 160 3 58 7 128 10 155 4 47 8 108 20 280 3 39 7 97 10 130
2 33 7 101 11 150 3 50 7 106 9 125 2 19 6 76 10 125 4 50 8 101 10 115 2 14
7 63 10 109 4 47 8 98 10 115 3 17 7 72 10 121 4 50 8 101 10 115 3 14 7 61
11 104 3 44 7 87 9 96 2 9 6 56 10 106 4 49 9 97 11 107 2 10 6 53 9 95 4 42
8 93 10 112 6 53 19 261 18 298 -1 86 -164 215 -226 180z m2425 -2436 c155
-70 159 -234 11 -542 -45 -95 -187 -347 -215 -385 -4 -5 -66 -98 -136 -205
-141 -213 -239 -343 -329 -435 -181 -187 -341 -247 -407 -154 -57 80 -65 278
-19 484 61 279 186 579 339 810 87 132 108 158 199 248 111 109 243 185 345
200 60 8 171 -3 212 -21z"/>
<path d="M20271 14661 c-29 -8 -58 -45 -66 -86 -3 -16 -8 -129 -10 -250 -4
-216 -11 -431 -20 -570 -2 -38 -7 -115 -10 -170 -6 -97 -9 -146 -19 -290 -3
-38 -8 -106 -11 -150 -7 -98 -14 -185 -20 -245 -2 -25 -7 -83 -10 -130 -3 -47
-8 -107 -10 -135 -2 -27 -7 -79 -10 -115 -3 -36 -7 -85 -10 -110 -2 -25 -7
-81 -10 -125 -3 -44 -8 -100 -10 -125 -2 -25 -7 -79 -10 -120 -3 -41 -8 -95
-10 -120 -3 -25 -7 -72 -10 -105 -3 -33 -7 -76 -9 -95 -3 -19 -7 -69 -11 -110
-3 -41 -8 -91 -10 -110 -2 -19 -7 -69 -10 -110 -3 -41 -8 -91 -10 -110 -6 -45
-13 -116 -20 -205 -4 -38 -8 -81 -10 -95 -2 -14 -7 -59 -10 -100 -4 -41 -9
-93 -11 -115 -2 -22 -6 -69 -9 -105 -3 -36 -8 -81 -11 -100 -13 -97 -13 -270
0 -320 22 -86 55 -97 171 -58 92 30 136 73 170 168 34 92 171 377 254 524 33
60 61 113 61 118 0 4 5 8 10 8 6 0 10 4 10 9 0 14 142 244 249 406 208 312
424 556 576 650 122 76 224 91 274 41 25 -25 26 -31 25 -129 0 -91 -9 -218
-20 -272 -2 -11 -7 -40 -10 -65 -3 -25 -14 -97 -24 -160 -21 -125 -49 -314
-56 -370 -2 -19 -6 -48 -8 -65 -9 -56 -18 -187 -21 -287 -6 -309 109 -493 342
-549 239 -57 490 36 735 273 107 103 124 150 60 163 -17 3 -42 -15 -103 -73
-167 -159 -318 -243 -464 -257 -246 -24 -370 201 -331 600 9 91 54 409 70 492
3 12 8 43 12 70 3 26 8 57 10 68 3 11 7 40 10 65 3 25 7 52 9 60 11 38 28 205
31 301 5 163 -24 267 -93 334 -75 73 -261 92 -401 40 -167 -61 -342 -196 -502
-385 -30 -36 -57 -67 -60 -70 -15 -14 -127 -170 -201 -280 -83 -123 -103 -154
-202 -315 -82 -133 -207 -354 -207 -365 0 -5 -4 -10 -10 -10 -5 0 -10 -6 -10
-13 0 -21 -69 -97 -84 -91 -14 5 -14 39 -2 139 20 167 36 308 41 360 8 92 15
156 20 195 5 40 12 122 20 225 3 39 8 88 10 110 3 22 7 76 10 120 3 44 7 98 9
120 2 22 7 87 11 145 4 58 8 121 10 140 2 19 6 80 10 135 3 55 8 111 10 125 2
14 7 68 10 120 4 52 8 106 10 120 3 14 7 63 9 111 3 47 8 101 10 120 3 18 8
70 12 114 3 44 8 96 9 115 2 19 6 69 9 110 5 74 15 182 21 250 2 19 6 73 10
120 3 47 8 110 10 140 13 162 20 310 20 440 0 133 -2 148 -22 180 -40 64 -111
103 -162 91z"/>
<path d="M9430 13859 c-93 -42 -189 -180 -198 -283 -5 -67 22 -104 86 -116 37
-6 48 -4 80 17 92 63 211 242 206 311 -6 84 -80 114 -174 71z"/>
<path d="M10658 13683 c-22 -24 -36 -63 -42 -115 -9 -73 -28 -254 -41 -383 -7
-72 -15 -153 -20 -205 -3 -25 -7 -72 -10 -105 -3 -33 -7 -76 -10 -95 -2 -19
-7 -57 -10 -85 -12 -115 -25 -232 -30 -265 -2 -14 -6 -50 -10 -80 -8 -74 -23
-118 -43 -129 -42 -21 -141 -37 -282 -46 -125 -8 -136 -10 -143 -34 -12 -46
62 -131 129 -150 35 -10 141 -6 199 6 93 21 101 12 85 -92 -5 -33 -12 -82 -15
-110 -3 -27 -8 -63 -10 -80 -10 -83 -21 -224 -30 -390 -7 -134 -15 -153 -102
-261 -103 -127 -298 -323 -416 -417 -285 -227 -565 -301 -661 -174 -48 63 -61
128 -60 297 0 137 7 259 20 355 2 17 6 48 8 70 11 90 16 131 21 155 3 14 8 45
11 70 3 25 18 124 34 220 31 190 39 239 45 285 2 17 9 64 15 105 14 95 24 213
24 266 -1 87 -85 168 -176 169 -74 0 -90 -25 -94 -145 -4 -129 -16 -255 -30
-335 -2 -11 -6 -45 -9 -75 -4 -30 -8 -62 -10 -70 -3 -8 -7 -37 -10 -65 -3 -27
-12 -93 -20 -145 -17 -114 -22 -147 -30 -225 -4 -33 -8 -70 -10 -81 -2 -12 -6
-61 -10 -110 -4 -49 -8 -100 -11 -114 -2 -14 -6 -106 -10 -205 -5 -155 -8
-184 -25 -207 -10 -15 -19 -30 -19 -33 0 -33 -217 -250 -298 -297 -392 -231
-600 140 -517 922 2 14 6 44 9 66 4 23 9 59 11 80 3 22 10 66 16 99 6 33 13
76 15 95 2 19 8 58 14 85 5 28 12 75 16 105 3 30 8 63 10 73 1 9 6 54 10 98
20 236 1 347 -70 419 -68 69 -104 84 -224 94 -215 18 -443 -138 -730 -500 -36
-45 -186 -272 -231 -350 -73 -125 -227 -438 -309 -629 -48 -110 -66 -140 -87
-140 -17 0 -20 7 -19 40 1 47 18 215 29 284 26 156 27 804 2 951 -23 136 -25
145 -55 222 -32 84 -103 175 -159 206 -53 29 -131 37 -177 18 -58 -24 -85
-105 -51 -153 8 -11 40 -38 71 -58 101 -67 122 -91 144 -163 12 -37 23 -83 25
-102 17 -142 20 -204 20 -430 0 -223 -7 -400 -20 -535 -2 -22 -7 -69 -10 -105
-4 -36 -8 -78 -10 -95 -2 -16 -6 -57 -10 -90 -3 -33 -8 -69 -10 -80 -2 -11 -4
-32 -4 -46 -1 -31 -61 -131 -121 -200 -145 -169 -392 -290 -511 -250 -91 30
-140 112 -179 296 -9 46 -6 463 4 555 2 19 7 69 10 110 15 163 45 393 61 466
3 12 7 39 11 60 10 68 72 321 105 425 36 118 36 184 0 262 -24 53 -83 116
-109 118 -54 4 -87 -26 -102 -93 -14 -68 -47 -168 -61 -184 -15 -18 -31 -8
-99 58 -66 64 -133 88 -255 92 -322 10 -606 -178 -860 -568 -162 -248 -315
-655 -351 -931 -3 -22 -8 -62 -13 -90 -8 -57 -7 -252 3 -305 33 -186 94 -288
191 -320 70 -23 176 8 296 85 120 79 316 280 450 460 24 33 47 61 52 63 4 2 7
10 7 18 0 8 3 14 8 14 4 0 34 43 67 95 33 53 67 106 75 119 37 58 209 345 232
386 98 176 112 195 120 162 7 -25 -2 -118 -22 -242 -5 -30 -12 -75 -15 -100
-3 -25 -8 -56 -10 -70 -2 -14 -7 -50 -10 -80 -3 -30 -8 -71 -10 -90 -21 -166
-21 -418 0 -520 3 -14 7 -36 10 -49 17 -92 84 -213 145 -264 122 -103 281
-109 474 -18 113 52 218 126 302 211 37 38 69 68 71 66 2 -1 -4 -29 -13 -62
-9 -32 -16 -80 -17 -106 -2 -89 80 -163 180 -163 73 0 113 57 183 260 77 224
249 593 401 860 25 44 83 145 129 225 69 121 162 268 247 390 43 62 148 182
205 236 85 79 157 117 223 118 106 2 147 -67 147 -249 1 -80 -9 -250 -17 -296
-2 -13 -7 -51 -10 -84 -4 -33 -9 -69 -10 -80 -2 -11 -6 -42 -10 -70 -3 -27 -8
-61 -10 -75 -2 -14 -7 -52 -10 -85 -4 -33 -11 -89 -15 -125 -11 -93 -11 -390
1 -490 30 -246 121 -424 249 -490 119 -61 285 -62 431 -1 132 55 262 166 354
301 27 38 50 69 51 67 2 -1 5 -14 7 -27 28 -150 102 -271 193 -315 121 -58
336 -1 574 153 220 142 386 292 619 560 29 34 56 62 60 62 4 0 8 -44 9 -97 3
-101 9 -188 18 -235 3 -15 7 -39 9 -55 28 -193 121 -350 243 -410 50 -25 68
-28 153 -28 90 0 99 2 171 38 109 53 233 147 387 292 147 139 496 496 581 595
12 14 47 54 79 90 32 36 70 79 84 95 l26 30 1 -120 c1 -139 8 -314 15 -400 13
-155 17 -188 21 -208 2 -12 7 -38 10 -57 19 -102 42 -179 71 -232 92 -169 243
-181 397 -32 35 34 136 163 163 209 7 11 38 63 69 115 78 128 276 523 373 745
68 153 125 300 182 468 7 21 21 45 30 53 15 13 18 13 33 -1 9 -9 16 -28 17
-43 4 -103 -7 -785 -16 -1022 -2 -47 -6 -166 -10 -265 -4 -99 -8 -198 -10
-220 -13 -237 -17 -315 -20 -345 -2 -20 -6 -81 -10 -135 -5 -93 -8 -126 -20
-245 -3 -25 -9 -92 -15 -150 -6 -58 -15 -130 -20 -160 -5 -30 -12 -75 -15
-100 -51 -375 -248 -747 -485 -916 -148 -105 -274 -147 -455 -147 -239 -2
-439 71 -602 217 -65 59 -98 72 -129 51 -35 -23 -30 -53 19 -99 80 -76 96 -87
232 -156 144 -73 267 -106 430 -116 375 -22 709 133 927 431 32 44 63 85 68
92 6 7 10 14 10 17 0 3 14 28 31 57 87 149 169 402 194 605 4 27 8 56 10 64 2
8 6 33 9 55 14 104 35 286 41 345 3 36 8 81 10 100 3 19 7 71 10 115 3 44 7
100 10 125 5 47 13 164 20 290 3 42 7 111 9 155 3 44 8 148 12 230 3 83 8 182
9 220 2 39 6 241 10 450 7 486 12 644 22 780 4 61 8 160 8 220 l0 111 -36 49
c-49 69 -125 121 -181 123 -56 3 -66 -8 -79 -90 -39 -244 -210 -779 -371
-1153 -35 -82 -242 -501 -294 -595 -212 -382 -345 -427 -413 -140 -11 47 -23
112 -26 145 -4 33 -9 76 -12 95 -4 19 -7 310 -8 646 l-1 612 -28 36 c-62 82
-181 144 -251 130 -50 -9 -62 -38 -46 -107 48 -204 62 -309 76 -589 l4 -86
-91 -123 c-50 -68 -96 -128 -102 -135 -6 -6 -24 -28 -41 -49 -16 -21 -34 -43
-40 -50 -5 -6 -39 -44 -75 -85 -77 -90 -177 -195 -284 -298 -98 -96 -87 -86
-176 -158 -260 -211 -472 -272 -582 -167 -31 30 -75 124 -83 179 -4 21 -8 46
-10 54 -24 90 -24 576 0 810 2 19 6 76 10 125 4 50 8 92 10 95 2 3 6 37 9 75
21 223 38 267 111 278 61 10 354 80 485 117 180 51 371 115 447 151 64 30 83
51 83 91 0 47 -16 48 -118 6 -161 -65 -433 -131 -672 -163 -44 -6 -104 -14
-140 -20 -144 -21 -143 -23 -119 162 9 76 20 163 24 193 3 30 8 66 10 80 5 29
12 85 20 150 3 25 7 56 10 70 3 14 7 45 10 70 3 25 7 56 10 70 6 40 14 101 20
150 3 25 8 56 10 70 11 61 19 150 19 212 1 59 -2 70 -30 105 -55 68 -156 109
-186 76z m-5541 -1452 c51 -14 98 -52 111 -89 13 -39 8 -134 -13 -212 -53
-203 -197 -479 -445 -852 -160 -239 -219 -317 -325 -424 -130 -133 -245 -200
-328 -195 -132 8 -163 261 -76 606 20 79 72 242 89 280 5 11 27 63 50 116 95
223 227 426 364 565 124 125 234 191 351 213 55 10 171 6 222 -8z"/>
<path d="M19292 12833 c-12 -10 -23 -36 -27 -58 -3 -22 -8 -53 -10 -70 -3 -16
-7 -46 -10 -65 -2 -19 -4 -35 -5 -35 -1 0 -3 -9 -4 -20 -21 -165 -22 -167 -65
-136 -45 33 -142 70 -203 78 -123 17 -324 -2 -437 -42 -23 -8 -45 -15 -49 -16
-4 -1 -17 -5 -30 -10 -13 -5 -26 -9 -29 -9 -13 0 -172 -86 -227 -122 -79 -54
-213 -188 -257 -258 -79 -125 -110 -222 -111 -350 -1 -77 4 -104 30 -162 63
-141 286 -249 582 -283 30 -4 69 -8 85 -11 17 -2 66 -6 110 -9 44 -3 96 -8
115 -11 19 -2 58 -7 85 -10 86 -10 268 -60 331 -92 65 -33 133 -100 135 -132
1 -11 2 -30 3 -42 3 -42 -24 -141 -56 -200 -63 -118 -258 -287 -413 -357 -16
-7 -38 -17 -48 -23 -52 -26 -259 -90 -336 -103 -19 -3 -37 -7 -40 -9 -7 -5
-141 -18 -191 -20 -37 -1 -121 7 -180 19 -100 18 -209 107 -231 189 -21 75
-15 135 20 202 23 44 30 68 26 87 -22 86 -146 80 -189 -8 -32 -65 -42 -191
-22 -280 44 -199 218 -330 481 -361 71 -8 276 -8 343 1 392 50 650 158 851
355 152 150 232 321 232 500 1 160 -67 243 -250 305 -39 13 -71 22 -71 20 0
-3 -11 0 -24 5 -13 5 -44 11 -67 15 -24 3 -69 10 -99 15 -30 5 -84 11 -120 15
-36 3 -83 8 -105 10 -22 2 -67 7 -100 10 -314 30 -477 80 -579 179 -48 48 -68
98 -68 176 0 248 242 489 576 575 75 20 111 23 206 21 140 -4 221 -29 282 -87
l40 -38 -6 -101 c-3 -56 -9 -130 -12 -164 -6 -63 -6 -63 33 -104 36 -38 75
-54 86 -34 3 4 8 41 11 82 8 94 16 161 21 180 3 8 7 33 10 55 6 40 22 132 29
171 2 12 7 39 10 60 11 67 34 156 60 231 38 111 42 153 17 200 -23 46 -74 93
-101 93 -10 0 -27 -8 -38 -17z"/>
</g>
</svg>
